HIERARCHY
ROOT pelvis
{
  OFFSET 0 100 0
  CHANNELS 6 Xposition Yposition Zposition Zrotation Xrotation Yrotation
  JOINT pelvis_right_femur
  {
    OFFSET -10.78128 -3.44521 -0.5502486
    CHANNELS 3 Zrotation Xrotation Yrotation
    JOINT right_femur_tibia
    {
      OFFSET -0.8047443 -44.0398 -0.1307829
      CHANNELS 3 Zrotation Xrotation Yrotation
      JOINT right_tibia_foot
      {
        OFFSET 3.006224 -47.83518 -5
        CHANNELS 3 Zrotation Xrotation Yrotation
        End Site
        {
          OFFSET 0 -5 15
        }
      }
    }
  }
  JOINT pelvis_left_femur
  {
    OFFSET 10.78128 -3.44521 -0.5502486
    CHANNELS 3 Zrotation Xrotation Yrotation
    JOINT left_femur_tibia
    {
      OFFSET 0.8047443 -44.0398 -0.1307829
      CHANNELS 3 Zrotation Xrotation Yrotation
      JOINT left_tibia_foot
      {
        OFFSET -4.370144 -48.10324 -4.275266
        CHANNELS 3 Zrotation Xrotation Yrotation
        End Site
        {
          OFFSET 0 -5 15
        }
      }
    }
  }
  JOINT pelvis_spine1
  {
    OFFSET 0 6.468898 -3.129235
    CHANNELS 3 Zrotation Xrotation Yrotation
    JOINT spine1
    {
      OFFSET 0 23.15396 4.99043
      CHANNELS 3 Zrotation Xrotation Yrotation
      JOINT spine2
      {
        OFFSET 0 20.79997 -5.064912
        CHANNELS 3 Zrotation Xrotation Yrotation
        JOINT neck
        {
          OFFSET 0 14.38658 9.616178
          CHANNELS 3 Zrotation Xrotation Yrotation
          End Site
          {
            OFFSET 0 20 0
          }
        }
      }
      JOINT right_manubrium
      {
        OFFSET -5.722621 16.35077 3.967754
        CHANNELS 3 Zrotation Xrotation Yrotation
        JOINT right_clavicle
        {
          OFFSET -13.16364 1.694482 -4.693211
          CHANNELS 3 Zrotation Xrotation Yrotation
          JOINT right_humerus
          {
            OFFSET -28.5034 -0.3100689 -2.792744
            CHANNELS 3 Zrotation Xrotation Yrotation
            JOINT right_radius
            {
              OFFSET -25.15693 0.02248979 -1.271978
              CHANNELS 3 Zrotation Xrotation Yrotation
              End Site
              {
                OFFSET -15 0 0
              }
            }
          }
        }
      }
      JOINT left_manubrium
      {
        OFFSET 5.722621 16.35077 3.967754
        CHANNELS 3 Zrotation Xrotation Yrotation
        JOINT left_clavicle
        {
          OFFSET 13.16364 1.694482 -4.693211
          CHANNELS 3 Zrotation Xrotation Yrotation
          JOINT left_humerus
          {
            OFFSET 29.39168 -1.063119 -2.237045
            CHANNELS 3 Zrotation Xrotation Yrotation
            JOINT left_radius
            {
              OFFSET 24.59957 -0.9528479 0.9047498
              CHANNELS 3 Zrotation Xrotation Yrotation
              End Site
              {
                OFFSET 15 -0 -0
              }
            }
          }
        }
      }
    }
  }
}
MOTION
Frames: 7
Frame Time: 0.0416666666667
-1250.519 120.9199 179.277 5.720143 6.023165 152.9984 8.397729 9.183025 -0.1414071 -0 16.58147 -0 -5.460026 -11.89729 -2.328579 4.723674 -16.91605 -5.058844 -0 18.73692 -0 5.012961 0.5191253 11.48639 2.154686 -7.752539 6.12563 0.3654671 19.96817 -6.387441 3.820368 19.38401 -1.366754 -2.878379 -17.75715 5.233373 0.6202332 -32.00875 14.27311 87.06586 6.219818 -8.945879 -0 0 29.98668 -34.06412 28.36617 27.33382 1.460127 -23.54205 -8.739075 -96.8626 20.80812 34.04116 0 0 -15.01636 -2.558804 19.2913 18.05678
-1248.885 120.885 174.2012 5.768729 5.976662 152.5336 8.397729 9.183025 -0.1414071 -0 16.58147 -0 -5.460026 -11.89729 -2.328579 4.723674 -16.91605 -5.058844 -0 18.73692 -0 5.012961 0.5191253 11.48639 2.154686 -7.752539 6.12563 0.3654671 19.96817 -6.387441 3.820368 19.38401 -1.366754 -2.878379 -17.75715 5.233373 0.6202332 -32.00875 14.27311 87.06586 6.219818 -8.945879 -0 0 29.98668 -34.06412 28.36617 27.33382 1.460127 -23.54205 -8.739075 -96.8626 20.80812 34.04116 0 0 -15.01636 -2.558804 19.2913 18.05678
-1247.21 120.8501 169.1389 5.816929 5.92977 152.0688 8.397729 9.183025 -0.1414071 -0 16.58147 -0 -5.460026 -11.89729 -2.328579 4.723674 -16.91605 -5.058844 -0 18.73692 -0 5.012961 0.5191253 11.48639 2.154686 -7.752539 6.12563 0.3654671 19.96817 -6.387441 3.820368 19.38401 -1.366754 -2.878379 -17.75715 5.233373 0.6202332 -32.00875 14.27311 87.06586 6.219818 -8.945879 -0 0 29.98668 -34.06412 28.36617 27.33382 1.460127 -23.54205 -8.739075 -96.8626 20.80812 34.04116 0 0 -15.01636 -2.558804 19.2913 18.05678
-1245.494 120.8152 164.0903 5.864741 5.88249 151.6042 8.397729 9.183025 -0.1414071 -0 16.58147 -0 -5.460026 -11.89729 -2.328579 4.723674 -16.91605 -5.058844 -0 18.73692 -0 5.012961 0.5191253 11.48639 2.154686 -7.752539 6.12563 0.3654671 19.96817 -6.387441 3.820368 19.38401 -1.366754 -2.878379 -17.75715 5.233373 0.6202332 -32.00875 14.27311 87.06586 6.219818 -8.945879 -0 0 29.98668 -34.06412 28.36617 27.33382 1.460127 -23.54205 -8.739075 -96.8626 20.80812 34.04116 0 0 -15.01636 -2.558804 19.2913 18.05678
-1243.737 120.7803 159.0559 5.912163 5.834826 151.1396 8.397729 9.183025 -0.1414071 -0 16.58147 -0 -5.460026 -11.89729 -2.328579 4.723674 -16.91605 -5.058844 -0 18.73692 -0 5.012961 0.5191253 11.48639 2.154686 -7.752539 6.12563 0.3654671 19.96817 -6.387441 3.820368 19.38401 -1.366754 -2.878379 -17.75715 5.233373 0.6202332 -32.00875 14.27311 87.06586 6.219818 -8.945879 -0 0 29.98668 -34.06412 28.36617 27.33382 1.460127 -23.54205 -8.739075 -96.8626 20.80812 34.04116 0 0 -15.01636 -2.558804 19.2913 18.05678
-1241.939 120.7454 154.0358 5.95919 5.78678 150.6751 8.397729 9.183025 -0.1414071 -0 16.58147 -0 -5.460026 -11.89729 -2.328579 4.723674 -16.91605 -5.058844 -0 18.73692 -0 5.012961 0.5191253 11.48639 2.154686 -7.752539 6.12563 0.3654671 19.96817 -6.387441 3.820368 19.38401 -1.366754 -2.878379 -17.75715 5.233373 0.6202332 -32.00875 14.27311 87.06586 6.219818 -8.945879 -0 0 29.98668 -34.06412 28.36617 27.33382 1.460127 -23.54205 -8.739075 -96.8626 20.80812 34.04116 0 0 -15.01636 -2.558804 19.2913 18.05678
-1240.1 120.7105 149.0305 6.00582 5.738358 150.2107 8.397729 9.183025 -0.1414071 -0 16.58147 -0 -5.460026 -11.89729 -2.328579 4.723674 -16.91605 -5.058844 -0 18.73692 -0 5.012961 0.5191253 11.48639 2.154686 -7.752539 6.12563 0.3654671 19.96817 -6.387441 3.820368 19.38401 -1.366754 -2.878379 -17.75715 5.233373 0.6202332 -32.00875 14.27311 87.06586 6.219818 -8.945879 -0 0 29.98668 -34.06412 28.36617 27.33382 1.460127 -23.54205 -8.739075 -96.8626 20.80812 34.04116 0 0 -15.01636 -2.558804 19.2913 18.05678
